HIERARCHY
ROOT Hips
{
	OFFSET 0.000000 0.000000 0.000000 
	CHANNELS 6 Xposition Yposition Zposition Yrotation Zrotation Xrotation 
	JOINT Lumbar
	{
		OFFSET 0.000000 0.000000 0.000000 
		CHANNELS 3 Zrotation Xrotation Yrotation
		JOINT Neck
		{
			OFFSET 0.000000 0.445665 0.000000 
			CHANNELS 3 Zrotation Xrotation Yrotation
			End Site
			{
				OFFSET 0.000000 0.227535 0.000000 
			}
		}
		JOINT RightShoulder
		{
			OFFSET 0.019635 0.377685 0.194865 
			CHANNELS 3 Zrotation Xrotation Yrotation
			JOINT RightElbow
			{
				OFFSET 0.000000 -0.243375 0.000000 
				CHANNELS 2 Zrotation Yrotation
				JOINT RightWrist
				{
					OFFSET 0.000000 -0.264825 0.000000 
					CHANNELS 2 Zrotation Xrotation
					End Site
					{
						OFFSET 0.006600 -0.176220 0.000990 
					}
				}
			}
		}
		JOINT LeftShoulder
		{
			OFFSET 0.019635 0.377685 -0.194865 
			CHANNELS 3 Zrotation Xrotation Yrotation
			JOINT LeftElbow
			{
				OFFSET 0.000000 -0.243375 0.000000 
				CHANNELS 2 Zrotation Yrotation
				JOINT LeftWrist
				{
					OFFSET 0.000000 -0.264825 0.000000 
					CHANNELS 2 Zrotation Xrotation
					End Site
					{
						OFFSET 0.006600 -0.176220 -0.000990 
					}
				}
			}
		}
	}
	JOINT RightHip
	{
		OFFSET 0.052140 -0.069960 0.075570 
		CHANNELS 3 Zrotation Xrotation Yrotation
		JOINT RightKnee
		{
			OFFSET 0.000000 -0.402270 0.000000 
			CHANNELS 1 Zrotation
			JOINT RightAnkle
			{
				OFFSET 0.000000 -0.404085 0.000000 
				CHANNELS 3 Zrotation Xrotation Yrotation
				End Site
				{
					OFFSET 0.204105 -0.089430 0.008415 
				}
			}
		}
	}
	JOINT LeftHip
	{
		OFFSET 0.052140 -0.069960 -0.075570 
		CHANNELS 3 Zrotation Xrotation Yrotation
		JOINT LeftKnee
		{
			OFFSET 0.000000 -0.402270 0.000000 
			CHANNELS 1 Zrotation
			JOINT LeftAnkle
			{
				OFFSET 0.000000 -0.404085 0.000000 
				CHANNELS 3 Zrotation Xrotation Yrotation
				End Site
				{
					OFFSET 0.204105 -0.089430 -0.008415 
				}
			}
		}
	}
}
MOTION
Frames: 30
Frame Time: 0.02
0.00034 -0.00013 0.00036 -175.36673 -27.87791 1.42426 43.38126 -0.69554 -7.21154 -13.97593 2.50286 -0.43741 -22.1916 -2.00113 -23.29464 25.92997 145.09177 18.9324 9.05642 -25.75315 3.53436 12.71442 30.42773 -168.34127 33.46661 -11.55204 29.70333 -2.09035 -3.4804 -20.23534 -6.77809 -4.68351 -3.09225 33.66381 3.10788 4.92984 -24.3151 -6.86936 2.49254 1.95237
0.00022 -0.00013 -3e-05 -175.4369 -27.89923 1.41694 43.39906 -0.69342 -7.22106 -13.94433 2.517 -0.43757 -22.2999 -2.17845 -22.50834 26.06534 142.9658 18.54872 8.69145 -25.92431 3.96401 11.32676 30.70732 -162.1847 31.64785 -10.5434 29.72768 -2.05952 -3.42174 -20.23566 -6.77463 -4.6796 -3.09186 33.67761 3.08882 4.73101 -24.31849 -6.87456 2.53593 1.9746
9e-05 -0.00012 -0.00041 -175.50695 -27.92048 1.40963 43.41689 -0.69131 -7.23053 -13.91291 2.53113 -0.43774 -22.40819 -2.35581 -21.72218 26.20059 140.83958 18.16444 8.32658 -26.09559 4.39202 9.94441 30.98691 -156.05416 29.83685 -9.53902 29.75192 -2.0288 -3.36349 -20.23597 -6.77115 -4.67567 -3.09144 33.69133 3.06984 4.53272 -24.32188 -6.87974 2.5792 1.99678
-3e-05 -0.00011 -0.0008 -175.57692 -27.94175 1.40232 43.43465 -0.6892 -7.24002 -13.88142 2.54524 -0.4379 -22.51622 -2.53271 -20.93779 26.33562 138.71857 17.78152 7.96249 -26.26634 4.82026 8.56127 31.26582 -149.91822 28.02419 -8.53376 29.7762 -1.99807 -3.30505 -20.23628 -6.76769 -4.67177 -3.09104 33.70509 3.05083 4.33444 -24.32527 -6.88492 2.62246 2.01895
-0.00015 -0.0001 -0.00119 -175.64699 -27.96306 1.39501 43.45235 -0.68708 -7.24956 -13.84974 2.55935 -0.43806 -22.6241 -2.70925 -20.15454 26.47061 136.60168 17.40025 7.59891 -26.4367 5.25035 7.1722 31.5443 -143.75218 26.20254 -7.52357 29.80057 -1.96722 -3.2461 -20.23659 -6.76426 -4.66791 -3.09067 33.71893 3.03177 4.13577 -24.32867 -6.89011 2.66582 2.04117
-0.00028 -9e-05 -0.00158 -175.71699 -27.98417 1.38769 43.47044 -0.685 -7.25887 -13.81888 2.57351 -0.43822 -22.73321 -2.88828 -19.36254 26.60636 134.4568 17.00988 7.23146 -26.60988 5.674 5.80391 31.82616 -137.69572 24.41377 -6.5313 29.82454 -1.93677 -3.18934 -20.23689 -6.76068 -4.66382 -3.09016 33.73237 3.01297 3.93836 -24.33203 -6.89527 2.70891 2.06326
-0.0004 -9e-05 -0.00196 -175.78706 -28.00572 1.38039 43.48772 -0.68283 -7.26865 -13.78635 2.58756 -0.43839 -22.83982 -3.06235 -18.58794 26.74058 132.36709 16.63727 6.87167 -26.77727 6.1099 4.39602 32.10117 -131.42974 22.56206 -5.50478 29.84935 -1.90556 -3.12825 -20.23723 -6.7574 -4.66019 -3.08992 33.74668 2.99359 3.73832 -24.33546 -6.90048 2.75252 2.08561
-0.00053 -8e-05 -0.00235 -175.85705 -28.02677 1.37308 43.50576 -0.68075 -7.27796 -13.75548 2.60171 -0.43855 -22.94858 -3.24052 -17.79927 26.87594 130.23292 16.25005 6.50578 -26.94984 6.53493 3.02338 32.38199 -125.34914 20.76611 -4.50855 29.87326 -1.87504 -3.07112 -20.23753 -6.75385 -4.65615 -3.08944 33.76004 2.97487 3.54126 -24.33883 -6.90564 2.79559 2.10768
-0.00065 -7e-05 -0.00274 -175.92702 -28.04762 1.36575 43.52471 -0.67878 -7.28686 -13.72617 2.61597 -0.43872 -23.06067 -3.42576 -16.98482 27.01387 128.0168 15.8375 6.12828 -27.12959 6.94509 1.69846 32.67221 -119.52491 19.04701 -3.55429 29.89657 -1.84541 -3.01898 -20.23778 -6.74994 -4.65157 -3.08864 33.77283 2.95645 3.34557 -24.34212 -6.91078 2.83829 2.12957
-0.00076 -6e-05 -0.00312 -175.99734 -28.07082 1.35851 43.53839 -0.67615 -7.29858 -13.68644 2.62958 -0.43886 -23.15573 -3.57653 -16.29283 27.14056 126.189 15.54816 5.80507 -27.27061 7.43606 0.11289 32.9153 -112.3151 16.91186 -2.3734 29.92486 -1.81079 -2.93859 -20.2383 -6.74802 -4.64996 -3.08962 33.79065 2.93481 3.13513 -24.34587 -6.91617 2.884 2.15299
-0.00092 -6e-05 -0.00351 -176.06677 -28.08829 1.35107 43.56317 -0.67494 -7.30407 -13.66962 2.64459 -0.43905 -23.28532 -3.796 -15.35934 27.28864 123.59597 15.01349 5.37543 -27.4916 7.75959 -0.93165 33.25325 -107.97109 15.63771 -1.66111 29.94164 -1.78661 -2.91749 -20.23827 -6.74195 -4.64218 -3.08688 33.79677 2.92092 2.96025 -24.34865 -6.92094 2.92276 2.17285
-0.00119 -6e-05 -0.00389 -176.13503 -28.09635 1.34325 43.61903 -0.6775 -7.29469 -13.70863 2.66322 -0.43937 -23.52134 -4.24067 -13.61282 27.51444 118.41854 13.67339 4.58129 -27.94763 7.59348 -0.40177 33.89129 -112.05328 16.89112 -2.3277 29.93513 -1.79201 -3.06348 -20.23649 -6.72412 -4.6165 -3.07348 33.77945 2.92023 2.84578 -24.34856 -6.92481 2.94724 2.18563
-0.00152 -7e-05 -0.00426 -176.20205 -28.09759 1.33524 43.68597 -0.68156 -7.27871 -13.77184 2.68326 -0.43974 -23.78919 -4.74851 -11.64869 27.75761 112.55057 12.10813 3.69196 -28.48032 7.26445 0.65622 34.61671 -118.9169 18.9809 -3.44889 29.91571 -1.80773 -3.26833 -20.23423 -6.70222 -4.5848 -3.05644 33.74897 2.9286 2.77286 -24.34752 -6.92793 2.96394 2.19438
-0.00184 -8e-05 -0.00463 -176.26899 -28.09764 1.32718 43.74739 -0.685 -7.26419 -13.82868 2.70288 -0.44009 -24.03572 -5.20229 -9.88607 27.98114 107.33008 10.73644 2.89574 -28.96874 7.03013 1.41203 35.27683 -124.13043 20.57724 -4.29963 29.89657 -1.81804 -3.44321 -20.23233 -6.68244 -4.55649 -3.04135 33.71856 2.93837 2.70648 -24.34705 -6.93088 2.98092 2.20313
-0.00209 -8e-05 -0.00501 -176.33919 -28.11527 1.31955 43.81069 -0.68804 -7.25586 -13.86645 2.72176 -0.44042 -24.31407 -5.7593 -7.70195 28.25668 100.74842 8.99267 1.89607 -29.50028 6.70977 2.42529 36.04729 -130.94659 22.64402 -5.41546 29.90028 -1.83127 -3.63126 -20.22976 -6.6615 -4.52541 -3.02498 33.71223 2.92579 2.53707 -24.34606 -6.93596 3.0112 2.21936
-0.00249 -0.0001 -0.00538 -176.40162 -28.09532 1.31114 43.87293 -0.69243 -7.23346 -13.94918 2.74227 -0.44081 -24.53019 -6.12121 -6.32893 28.42502 96.77694 7.95351 1.28858 -29.95622 6.52808 3.03514 36.60599 -135.1251 23.94144 -6.09366 29.85424 -1.84106 -3.8065 -20.22854 -6.642 -4.49867 -3.01043 33.6537 2.96077 2.58684 -24.34587 -6.93646 3.01248 2.21937
-0.0033 -0.00019 -0.00571 -176.44811 -27.96845 1.29922 43.92666 -0.6988 -7.17045 -14.153 2.76896 -0.44133 -24.59498 -5.88548 -7.38055 28.32204 100.72148 9.06491 1.86653 -30.21652 6.78778 2.33141 36.58411 -130.97134 22.79932 -5.39186 29.66727 -1.83712 -3.92653 -20.23067 -6.62753 -4.48528 -3.00166 33.44625 3.13462 3.27657 -24.34868 -6.92418 2.93094 2.1729
-0.00424 -0.0003 -0.00604 -176.48542 -27.80532 1.2868 43.97875 -0.70674 -7.09418 -14.39976 2.79685 -0.44192 -24.58986 -5.45888 -9.23114 28.10775 107.22314 10.86723 2.82872 -30.39095 7.19025 1.21462 36.34381 -124.13241 20.87312 -4.24479 29.43267 -1.82966 -4.03287 -20.23433 -6.61464 -4.47646 -2.99485 33.18913 3.35423 4.17696 -24.35239 -6.90741 2.82131 2.11071
-0.0051 -0.0004 -0.00637 -176.52405 -27.66147 1.27547 44.03444 -0.71487 -7.02615 -14.62614 2.82289 -0.44247 -24.5993 -5.14864 -10.63007 27.9221 112.19168 12.25263 3.5618 -30.58526 7.51391 0.33527 36.18357 -118.76659 19.37971 -3.34133 29.22333 -1.82495 -4.1487 -20.23757 -6.60098 -4.46562 -2.98721 32.95882 3.54647 4.95154 -24.35514 -6.89284 2.72765 2.0575
-0.00605 -0.00051 -0.0067 -176.57644 -27.50389 1.26039 44.08152 -0.71926 -6.94839 -14.86084 2.85455 -0.44298 -24.68617 -4.7173 -12.39654 27.81901 118.6739 14.0568 4.51742 -30.86791 7.88648 -0.72806 36.09722 -112.44092 17.59806 -2.2807 28.99526 -1.81579 -4.25177 -20.2394 -6.58736 -4.45436 -2.97921 32.70642 3.7667 5.85486 -24.35956 -6.87739 2.6204 1.9965
-0.00684 -0.00061 -0.00704 -176.59579 -27.36849 1.25315 44.14216 -0.73175 -6.88801 -15.08331 2.87472 -0.44367 -24.59018 -4.48989 -13.58849 27.53073 122.65548 15.16566 5.10724 -30.93911 8.19846 -1.52255 35.81677 -107.42756 16.21296 -1.43436 28.79887 -1.81487 -4.37869 -20.24481 -6.57414 -4.44512 -2.97248 32.49313 3.93945 6.53911 -24.3615 -6.86293 2.53464 1.94791
-0.00734 -0.00069 -0.00743 -176.54471 -27.28582 1.26624 44.27349 -0.76644 -6.87721 -15.30239 2.86336 -0.44412 -24.04472 -4.8911 -13.01149 26.64871 118.79846 14.10009 4.54796 -30.49801 8.26419 -1.39552 34.94871 -106.79226 16.16764 -1.29857 28.6701 -1.8378 -4.56258 -20.25766 -6.56124 -4.44054 -2.9688 32.36122 3.96933 6.57009 -24.35048 -6.85065 2.51702 1.9385
-0.00764 -0.00077 -0.00784 -176.45699 -27.23043 1.28747 44.41232 -0.80902 -6.88459 -15.49994 2.84028 -0.44488 -23.31006 -5.50075 -11.82669 25.60846 112.39595 12.32729 3.61587 -29.83691 8.27317 -1.00079 33.91562 -107.53743 16.53402 -1.3896 28.58156 -1.86892 -4.77237 -20.27457 -6.54887 -4.43792 -2.96642 32.27875 3.94993 6.37248 -24.33858 -6.83988 2.52163 1.94193
-0.00793 -0.00085 -0.00825 -176.37417 -27.17341 1.30594 44.52611 -0.84805 -6.88489 -15.68044 2.8223 -0.44599 -22.63707 -6.00177 -10.9136 24.70745 107.36624 10.93637 2.88485 -29.24339 8.33763 -0.78268 33.02202 -107.57361 16.67342 -1.36809 28.4944 -1.89624 -4.9787 -20.29081 -6.53644 -4.4342 -2.96341 32.19783 3.95342 6.27732 -24.33028 -6.82942 2.51489 1.93881
-0.00869 -0.00095 -0.00862 -176.34161 -27.06788 1.32055 44.73117 -0.88768 -6.88018 -15.97575 2.80546 -0.44503 -22.06544 -6.55301 -10.05016 23.50219 101.52006 9.31708 2.03482 -28.78506 8.28112 -0.34716 31.83388 -107.86538 16.95583 -1.37155 28.31953 -1.92427 -5.15175 -20.30163 -6.52295 -4.43117 -2.9604 32.00948 3.95636 6.19582 -24.30629 -6.81438 2.5126 1.93819
-0.00839 -0.001 -0.00909 -176.19458 -27.0726 1.34502 44.74793 -0.92703 -6.88985 -16.02625 2.7833 -0.44843 -21.23726 -7.05395 -8.92499 22.91472 96.72847 7.99275 1.33757 -27.9923 8.4619 -0.29489 31.24132 -107.98363 17.04644 -1.38228 28.34134 -1.95218 -5.39761 -20.3253 -6.51222 -4.42752 -2.95793 32.06267 3.9482 6.02854 -24.31755 -6.80954 2.5065 1.93556
-0.00532 -0.00093 -0.00986 -175.7501 -27.35327 1.39545 44.24081 -0.97097 -6.93914 -15.40712 2.75091 -0.46395 -19.7591 -7.34541 -7.25538 23.90153 95.53048 7.68376 1.16496 -26.34432 9.30386 -1.37069 32.17647 -107.32523 16.52494 -1.36139 28.86029 -1.98302 -5.86249 -20.37778 -6.50533 -4.41824 -2.95461 32.72218 3.92076 5.68257 -24.40289 -6.83039 2.48618 1.92492
-0.00115 -0.0008 -0.01075 -175.18953 -27.74624 1.45523 43.54297 -1.01276 -7.00134 -14.54308 2.71356 -0.4838 -18.02753 -7.58324 -5.33574 25.54877 95.45707 7.68625 1.15473 -24.36502 10.38584 -2.83809 33.74646 -106.45049 15.79705 -1.34119 29.58014 -2.01241 -6.39536 -20.44379 -6.50197 -4.40892 -2.95219 33.6303 3.88381 5.25726 -24.52848 -6.86185 2.46119 1.91183
0.0026 -0.00071 -0.0116 -174.67635 -28.10482 1.51048 42.93549 -1.05101 -7.0551 -13.78877 2.67707 -0.50154 -16.40409 -7.85995 -3.50478 27.00487 94.8185 7.52588 1.06087 -22.52846 11.36434 -4.12196 35.1309 -105.66134 15.15503 -1.32074 30.23528 -2.03915 -6.88113 -20.50771 -6.49926 -4.40183 -2.95067 34.45934 3.8513 4.86498 -24.65052 -6.88987 2.43723 1.89943
0.00602 -0.00059 -0.0124 -174.18623 -28.4022 1.56792 42.3182 -1.10951 -7.12116 -13.03567 2.64489 -0.5199 -14.80292 -8.08431 -1.75065 27.99171 94.32447 7.43584 0.99646 -20.71753 12.32351 -5.42226 36.07763 -104.97142 14.55869 -1.3088 30.79037 -2.08048 -7.43585 -20.5559 -6.48666 -4.38536 -2.94359 35.15549 3.81628 4.47526 -24.70873 -6.91217 2.41821 1.88903
